<?xml version="1.0" standalone="no"?>
<!DOCTYPE svg PUBLIC "-//W3C//DTD SVG 20010904//EN"
 "http://www.w3.org/TR/2001/REC-SVG-20010904/DTD/svg10.dtd">
<svg version="1.0" xmlns="http://www.w3.org/2000/svg"
 width="700.000000pt" height="700.000000pt" viewBox="0 0 700.000000 700.000000"
 preserveAspectRatio="xMidYMid meet">
<metadata>
Created by potrace 1.14, written by Peter Selinger 2001-2017
</metadata>
<g transform="translate(0.000000,700.000000) scale(0.100000,-0.100000)"
fill="#000000" stroke="none">
<path d="M3280 6994 c-19 -2 -84 -9 -145 -14 -410 -40 -846 -169 -1225 -362
-343 -176 -628 -387 -908 -672 -561 -572 -883 -1252 -984 -2081 -7 -56 -12
-217 -12 -365 0 -268 7 -362 45 -588 96 -575 348 -1138 716 -1597 115 -144
339 -373 483 -494 537 -451 1157 -715 1885 -803 135 -16 590 -16 735 1 512 58
1002 222 1426 478 635 383 1136 957 1422 1628 255 599 339 1259 242 1898 -93
610 -340 1176 -726 1662 -116 147 -431 459 -574 569 -523 404 -1101 642 -1750
722 -117 15 -553 27 -630 18z m1248 -970 c89 -22 233 -90 307 -147 101 -76
507 -494 558 -572 83 -130 124 -252 133 -405 16 -239 -72 -467 -246 -640 -88
-88 -135 -116 -175 -106 -36 9 -159 127 -193 185 -19 33 -26 59 -27 98 0 53 1
55 61 111 77 71 102 107 125 184 35 110 19 233 -41 328 -16 25 -127 143 -247
262 -193 192 -226 221 -288 250 -64 30 -78 33 -165 33 -86 0 -101 -3 -162 -32
-85 -40 -151 -106 -191 -191 -29 -61 -32 -76 -32 -162 1 -133 23 -185 126
-296 90 -97 91 -101 59 -216 -11 -40 -24 -112 -29 -160 -5 -50 -15 -98 -25
-112 -18 -28 -74 -43 -102 -28 -39 21 -320 320 -353 374 -40 69 -75 153 -98
239 -27 99 -24 310 5 412 92 321 356 555 685 608 73 11 235 3 315 -17z m-1851
-902 c263 -58 514 -171 645 -292 l60 -55 -143 -270 c-78 -148 -143 -271 -144
-272 -1 -2 -69 24 -151 57 -472 187 -744 169 -942 -64 -84 -99 -128 -221 -139
-385 -6 -90 -5 -94 13 -86 81 33 230 78 307 91 137 24 413 14 560 -20 188 -44
334 -117 450 -226 150 -140 239 -313 289 -562 30 -153 33 -477 5 -608 -80
-370 -293 -661 -603 -820 -178 -91 -372 -133 -624 -134 -297 -1 -498 51 -700
182 -289 187 -460 514 -537 1027 -25 174 -26 767 0 975 114 926 492 1401 1177
1484 92 11 388 -3 477 -22z m2130 -75 c73 -75 92 -101 101 -139 20 -78 17 -85
-60 -162 -49 -49 -81 -91 -102 -136 -28 -59 -31 -74 -31 -165 0 -159 13 -179
297 -462 282 -281 294 -288 458 -288 99 0 110 2 172 33 83 41 158 119 189 200
18 45 23 77 24 152 0 87 -3 101 -32 162 -21 44 -57 94 -102 142 -80 85 -81 88
-51 204 11 42 24 117 29 165 9 92 23 121 69 138 40 16 82 -14 218 -152 175
-179 242 -284 290 -459 28 -100 26 -310 -4 -415 -65 -230 -220 -421 -425 -524
-118 -60 -202 -82 -338 -88 -189 -9 -350 35 -503 138 -95 64 -568 542 -615
621 -74 126 -110 248 -118 398 -12 234 74 454 244 623 87 86 119 107 164 107
32 0 45 -9 126 -93z"/>
<path d="M2040 3254 c-30 -8 -82 -30 -115 -48 l-60 -33 3 -224 c1 -123 7 -269
13 -324 34 -339 139 -485 349 -488 85 -1 144 25 213 95 63 64 106 135 144 243
26 75 28 91 27 235 0 171 -19 266 -71 363 -86 156 -303 235 -503 181z"/>
</g>
</svg>
