<svg
		preserveAspectRatio="none"
		viewBox="13 13 176 176"
		xmlns="http://www.w3.org/2000/svg">
  <path
			d="M45.7,-79.1C58.5,-71.7,67.7,-58.1,74.7,-43.8C81.7,-29.6,86.5,-14.8,87.7,0.7C89,16.3,86.8,32.6,79,45.4C71.2,58.2,57.9,67.6,43.8,74.4C29.6,81.1,14.8,85.2,-0.6,86.2C-16,87.3,-32.1,85.3,-45.3,78.1C-58.6,70.9,-69,58.4,-75.8,44.5C-82.5,30.6,-85.6,15.3,-86,-0.2C-86.4,-15.8,-84.2,-31.5,-77.4,-45.4C-70.6,-59.2,-59.3,-71.1,-45.6,-78C-32,-84.9,-16,-86.8,0.2,-87.2C16.4,-87.6,32.8,-86.4,45.7,-79.1Z"
			transform="translate(100 100)" />
</svg>
