<svg width="250" height="250" viewBox="0 0 250 250" fill="none" xmlns="http://www.w3.org/2000/svg">
<circle cx="125" cy="125" r="125" fill="#D8315B"/>
<path d="M186.792 97.7908C198.461 86.1094 198.301 67.3811 186.862 55.8788C186.84 55.8553 186.815 55.8299 186.792 55.8065L173.667 42.6815C162.09 31.1054 143.257 31.1069 131.682 42.6815C120.106 54.2557 120.106 73.0916 131.682 84.6658L138.929 91.9131C140.851 93.8349 144.161 92.5576 144.26 89.8416C144.387 86.3803 145.008 82.9027 146.153 79.5445C146.541 78.4074 146.264 77.1496 145.414 76.3L142.858 73.744C137.384 68.2701 137.212 59.3573 142.632 53.8299C148.106 48.2481 157.102 48.2149 162.618 53.7303L175.743 66.8534C181.249 72.3594 181.226 81.259 175.743 86.742C175.02 87.4635 174.292 88.024 173.723 88.4156C173.321 88.6919 172.988 89.0584 172.753 89.4859C172.517 89.9134 172.385 90.39 172.366 90.8777C172.289 92.9416 173.02 95.0683 174.651 96.6992L178.763 100.811C179.841 101.89 181.533 102.022 182.783 101.15C184.215 100.15 185.557 99.0257 186.792 97.7908ZM214.318 125.318C202.743 136.893 183.91 136.895 172.334 125.318L159.209 112.193C159.185 112.17 159.16 112.145 159.138 112.121C147.7 100.619 147.539 81.8906 159.209 70.2092C160.443 68.9743 161.785 67.8504 163.217 66.8506C164.467 65.978 166.159 66.1106 167.237 67.1887L171.349 71.301C172.98 72.9319 173.711 75.0586 173.634 77.1225C173.615 77.6102 173.483 78.0868 173.247 78.5143C173.011 78.9418 172.679 79.3083 172.277 79.5846C171.708 79.9762 170.98 80.5367 170.257 81.2582C164.774 86.7412 164.751 95.6408 170.257 101.147L183.382 114.27C188.898 119.785 197.894 119.752 203.367 114.17C208.787 108.643 208.616 99.73 203.142 94.2562L200.586 91.7002C199.736 90.8506 199.459 89.5928 199.847 88.4557C200.992 85.0975 201.613 81.6199 201.74 78.1586C201.839 75.4426 205.149 74.1653 207.07 76.0871L214.318 83.3344C225.894 94.9084 225.894 113.744 214.318 125.318Z" fill="white"/>
<path d="M120.06 83.18L110.18 101.8C100.807 97.4933 93.08 95.34 87 95.34C81.5533 95.34 77.0567 97.3667 73.51 101.42C70.09 105.347 68.38 110.477 68.38 116.81C68.38 117.063 68.38 117.507 68.38 118.14C74.46 115.48 80.2867 114.15 85.86 114.15C111.573 114.15 124.43 127.387 124.43 153.86C124.43 165.007 120.883 174.57 113.79 182.55C106.063 191.037 95.36 195.28 81.68 195.28C53.3067 195.28 39.12 176.407 39.12 138.66C39.12 93.1867 54.8267 70.45 86.24 70.45C92.32 70.45 98.59 71.6533 105.05 74.06C111.637 76.4667 116.64 79.5067 120.06 83.18ZM68.57 137.71V139.04V142.08C68.57 143.22 68.57 144.17 68.57 144.93C68.57 155.063 69.52 162.283 71.42 166.59C73.4467 170.77 76.74 172.86 81.3 172.86C84.5933 172.86 87.57 170.96 90.23 167.16C92.89 163.233 94.22 158.8 94.22 153.86C94.22 140.813 89.09 134.29 78.83 134.29C75.03 134.29 71.61 135.43 68.57 137.71Z" fill="white"/>
</svg>
